<?xml version="1.0" encoding="utf-8"?>
<!-- Generator: Adobe Illustrator 21.0.2, SVG Export Plug-In . SVG Version: 6.00 Build 0)  -->
<svg version="1.1" id="Layer_1" xmlns="http://www.w3.org/2000/svg" xmlns:xlink="http://www.w3.org/1999/xlink" x="0px" y="0px"
	 viewBox="0 0 473.4 473.4" style="enable-background:new 0 0 473.4 473.4;" xml:space="preserve">
<style type="text/css">
	.st0{fill:#F6F6F6;}
</style>
<path class="st0" d="M236.7,0C106,0,0,106,0,236.7s106,236.7,236.7,236.7s236.7-106,236.7-236.7S367.4,0,236.7,0z M236.7,459.2
	c-122.9,0-222.5-99.6-222.5-222.5S113.8,14.2,236.7,14.2s222.5,99.6,222.5,222.5S359.6,459.2,236.7,459.2z M240.4,169.4v91.4
	l85.6,85.8l-5,4.9l-80.6-80.8v142.6H233V270.8l-80.5,80.8l-5-4.9l85.5-85.8v-91.4l-80.5,80.8l-5-4.9l85.5-85.8V69.1L152.5,150
	l-5-4.9l89.2-89.5L326,145l-5,4.9l-80.6-80.8v90.4l85.6,85.8l-5,4.9L240.4,169.4z"/>
</svg>
